PathFileType	4	(X/Y/Z)	C:/Users/beibeiliu/ov580/test_trc\sequence.24_training_dense_right.trc
DataRate	CameraRate	NumFrames	NumMarkers	Units	OrigDataRate	OrigDataStartFrame	OrigNumFrames
120	120	19	19	mm	120	54	80
Frame#	Time	ThumbCMC			ThumbMCP			ThumbIP			ThumbTip			IndexMCP			IndexPIP			IndexTip			MiddleMCP			MiddlePIP			MiddleTip			RingMCP			RingPIP			RingTip			PinkyMCP			PinkyPIP			PinkyTip			BackHand1			BackHand2			BackHand3	
		X0	Y0	Z0	X1	Y1	Z1	X2	Y2	Z2	X3	Y3	Z3	X4	Y4	Z4	X5	Y5	Z5	X6	Y6	Z6	X7	Y7	Z7	X8	Y8	Z8	X9	Y9	Z9	X10	Y10	Z10	X11	Y11	Z11	X12	Y12	Z12	X13	Y13	Z13	X14	Y14	Z14	X15	Y15	Z15	X16	Y16	Z16	X17	Y17	Z17	X18	Y18	Z18	
53	0.441667	260.319	29.93	159.087	260.514	44.6814	128.817	265.484	45.9915	104.424	270.96	34.6063	76.719	304.683	-5.60413	110.944	308.872	-5.98766	83.5614	299.43	-2.97768	55.9053	299.27	-25.0789	105.116	300.069	-25.3049	70.7992	285.881	-16.556	45.2342	282.637	-42.8293	100.23	281.413	-39.2232	72.9745	270.133	-18.2975	48.9931	260.757	-51.3545	107.247	258.358	-49.8538	79.8259	255.15	-31.5091	57.4619	263.165	-37.7571	156.255	248.306	-29.5473	179.28	274.899	-6.47874	170.758	
54	0.45	239.454	44.3743	155.506	234.327	55.5898	126.635	241.222	62.064	98.5937	246.71	55.2857	77.4579	298.912	29.5929	107.843	302.96	33.8807	79.4619	295.867	32.001	55.556	300.487	8.68735	104.347	302.244	9.88172	71.8211	289.594	15.024	46.9896	291.244	-9.78997	101.729	290.149	-12.1359	73.9911	275.918	-0.527921	50.0827	276.199	-28.2132	105.468	274.144	-26.0207	78.682	260.772	-13.1761	53.3558	269.674	-11.2791	153.258	249.488	-13.1224	178.188	268.558	19.2406	168.034	
55	0.458333	215.163	53.197	147.958	208.146	61.282	117.02	207.54	67.9188	93.1396	219.022	60.1581	68.4122	274.054	61.0723	103.149	278.852	62.0714	75.3133	274.107	58.7726	50.2536	284.007	38.1139	99.9254	286.78	39.2655	69.3647	271.291	35.5278	38.473	281.537	14.3037	100.386	281.66	19.957	68.2574	265.703	16.2673	42.8362	273.099	-3.96396	105.217	273.227	-6.8401	75.1698	261.41	2.59687	51.8282	263.5	10.2064	149.624	242.664	4.70775	174.06	248.319	42.4083	162.136	
56	0.466667	189.188	54.9699	140.085	176.966	58.4168	109.324	178.849	62.3398	83.802	187.392	57.9268	60.6278	244.212	73.0254	92.4136	246.405	78.1967	67.3943	242.437	70.2888	37.4779	258.732	55.0476	91.2157	262.616	52.8493	62.0122	248.487	45.2417	31.9461	261.575	35.2527	93.045	265.153	30.5317	61.3652	249.203	23.9342	37.3885	260.444	14.5834	98.5063	262.938	7.54441	70.8977	247.069	5.8717	45.8207	246.096	24.3522	143.846	231.424	18.6316	168.133	225.772	50.5962	152.734	
57	0.475	163.341	44.8914	133.283	151.576	44.6283	100.886	149.651	46.5955	72.9578	159.527	41.3062	56.0565	209.696	73.006	82.6213	215.276	74.3156	53.2982	211.706	60.3666	26.2731	231.943	56.3034	79.8983	234.039	54.6635	47.4809	224.461	37.849	23.1577	241.406	37.5434	84.794	243.791	34.58	54.7487	227.222	23.7063	29.4921	247.369	18.0218	90.6988	246.118	15.3067	65.9666	232.823	5.22922	37.9846	225.752	34.3256	136.179	217.194	25.2546	159.288	201.636	51.496	143.305	
58	0.483333	143.259	32.9497	126.16	128.179	23.935	100.696	123.412	23.1435	74.1323	137.427	16.2923	51.1709	181.764	58.6341	71.4415	181.885	59.1099	39.8852	181.306	41.4684	17.8955	204.225	48.3823	71.3079	209.493	39.3201	37.6629	196.955	18.6306	14.2778	215.875	35.6233	75.9465	222.146	22.9589	46.8743	209.818	7.24292	26.912	228.517	15.2234	87.4841	230.539	6.4663	61.778	222.273	-8.06978	37.6539	206.891	31.2951	129.9	197.839	26.8869	158.471	177.061	47.6318	136.485	
59	0.491667	123.93	16.4425	126.326	106.716	1.71731	102.072	110.511	-6.89211	75.9551	116.365	-15.4188	56.4814	151.421	36.7052	62.8634	155.387	28.726	35.1593	158.479	5.79692	15.1655	179.876	28.7226	60.5468	183.665	15.1317	33.0331	178.468	-10.3144	16.6862	196.747	19.107	70.6708	201.488	4.18672	44.1453	193.033	-19.9206	29.0226	209.24	4.47077	87.6976	214.58	-9.02399	64.1184	206.278	-25.9513	44.1577	185.988	26.746	119.668	179.072	26.8604	153.259	155.54	38.9033	130.583	
60	0.5	103.761	4.44873	131.623	95.2731	-15.3061	109.693	89.1252	-27.2973	85.4894	94.3272	-39.561	63.3583	132.834	13.9019	59.3656	129.565	-0.862672	32.8287	129.78	-24.7666	16.876	155.58	8.42187	61.8808	156.624	-8.93856	35.1465	154.41	-45.1491	22.7551	176.486	-1.98954	66.3913	177.651	-20.2783	46.1285	168.328	-48.2506	34.643	190.355	-13.1404	87.4879	189.205	-28.1968	62.3959	187.885	-50.869	49.234	170.121	15.7255	118.612	164.738	20.3109	148.774	138.504	28.2084	124.128	
61	0.508333	93.5013	1.11828	134.386	74.6113	-19.0124	120.396	67.6697	-33.1438	95.8524	74.2189	-46.1062	77.6338	113.506	-0.412015	67.6629	111.296	-19.1507	40.4632	102.8	-40.1297	28.1458	138.998	-13.5468	66.5068	130.923	-33.0431	39.4757	118.833	-62.9427	33.4462	151.306	-22.5189	70.812	149.602	-41.3613	51.1115	135.745	-69.498	43.9656	165.831	-33.0705	86.1869	166.103	-50.8568	69.6744	149.971	-74.6304	52.6982	156.571	-1.96585	118.408	155.629	7.97542	147.637	125.962	19.5365	126.113	
62	0.516667	89.5903	10.635	141.691	67.2585	-7.25489	128.666	54.0462	-21.0867	104.428	50.2066	-34.3593	88.4532	103.491	-7.07294	73.6058	93.1583	-22.44	51.7	74.2054	-43.5862	39.161	119.053	-25.4118	66.1528	103.091	-42.1763	49.0399	80.9923	-70.7316	48.0287	132.597	-38.5474	78.4923	115.856	-56.4581	56.7511	92.1947	-79.431	56.6517	144.25	-50.8016	94.5333	131.145	-66.2865	73.7083	107.792	-81.6336	64.3719	146.443	-13.2023	123.437	153.897	-3.04236	150.996	126.338	12.5421	127.651	
63	0.525	95.1709	26.97	143.119	67.7017	16.9727	133.077	48.3646	9.34254	114.438	36.6184	-5.83104	96.6429	96.3255	1.7458	76.1031	74.2836	-5.49358	54.2773	52.855	-26.8496	50.9363	103.516	-19.3959	72.9238	82.5877	-30.6895	57.0775	49.0309	-50.4957	58.9984	112.964	-36.9695	82.8698	91.1802	-51.4335	66.1923	62.5136	-61.0611	68.5626	120.142	-51.2217	98.2581	102.703	-59.892	82.0553	74.7883	-70.8095	74.8174	140.172	-16.5254	120.092	151.208	-6.10092	150.34	128.925	17.7074	127.387	
64	0.533333	110.259	49.8072	147.865	76.3573	54.5727	133.81	55.6154	52.8606	121.04	39.8512	38.1715	103.045	94.1123	30.7114	77.1578	66.121	26.2475	57.6505	39.9054	15.0939	56.8492	92.4014	6.84696	73.0203	66.1088	-2.87681	60.6415	32.8106	-3.94476	64.7936	95.8625	-16.0634	82.6586	65.8927	-24.9746	68.1984	40.415	-21.5262	72.8985	98.1778	-31.4719	97.7167	74.6591	-38.4477	84.4957	46.4529	-40.0478	82.6947	130.937	-7.94137	118.452	148.047	-1.62022	145.951	135.112	27.3776	127.535	
65	0.541667	124.533	66.5838	145.692	97.2652	78.5997	136.173	76.8185	86.7626	120.506	57.3187	78.7468	106.487	100.444	51.9563	77.4907	72.1728	53.0659	60.7034	46.3549	55.2703	59.3589	89.8628	26.3521	70.6786	64.2217	30.5478	61.1136	33.72	40.3299	67.2843	87.0584	10.6716	79.5469	60.2674	12.826	68.4335	31.8652	24.6347	75.0488	84.0739	-7.50285	95.3564	56.9398	-7.13277	85.6251	34.495	3.75247	85.3374	126.515	4.6571	119.43	143.173	6.38397	145.718	140.622	34.0611	123.066	
66	0.55	141.801	70.6134	142.348	120.713	89.8178	132.839	101.976	102.842	112	82.7093	97.8988	98.8963	112.383	61.6473	71.865	93.8357	73.4289	56.1934	62.266	84.2485	55.1199	101.714	41.2703	69.8658	75.3203	52.2875	55.9329	44.7373	69.6117	64.7407	89.6097	24.3113	73.9367	63.173	35.8591	63.5227	43.1631	54.1189	70.0588	83.7753	8.42818	91.9266	62.0794	15.237	81.1411	35.8083	34.76	82.7467	124.46	8.04137	113.451	139.221	5.7909	141.605	148.235	35.1188	124.362	
67	0.558333	159.689	62.3318	137.669	143.402	84.4912	123.351	128.413	95.5856	101.542	111.76	99.3765	86.5369	133.222	53.4618	65.4994	116.42	70.0031	47.6999	89.3725	83.9295	45.9605	117.559	40.3143	60.3485	95.3154	51.8337	47.6909	70.8749	74.5562	52.6873	103.879	21.5227	72.3816	82.9785	37.5522	55.9734	63.8379	62.2644	60.7079	90.3199	9.12302	87.7387	71.419	26.3359	70.3827	54.0812	47.3044	71.774	131.667	4.29524	114.359	142.065	-3.2324	142.915	159.524	26.4208	119.335	
68	0.566667	172.923	45.1907	134.589	162.152	66.1634	117.675	155.533	83.3343	92.2514	138.706	82.9891	72.62	155.105	29.5336	63.6705	140.874	42.3848	40.7774	121.85	65.3722	34.6879	134.368	16.0104	55.7002	117.74	32.4409	40.4585	97.7861	60.7929	41.1986	118.247	4.38901	66.768	104.263	22.7847	48.0546	89.714	53.7535	48.2111	104.399	-1.6324	81.6624	91.4328	11.5568	65.0017	79.8069	42.7767	59.8345	141.718	-9.49224	115.089	146.074	-14.0629	141.893	166.855	4.64769	121.26	
69	0.575	188.168	18.8815	132.761	184.129	40.4122	114.01	180.579	51.502	84.5237	167.619	51.6477	67.2496	183.905	-2.13601	62.3223	173.483	9.02288	39.1155	156.052	29.7073	28.2391	162.87	-15.6018	60.0422	150.234	0.316319	37.3484	128.674	28.4249	33.6845	143.327	-23.6138	69.5241	133.434	-7.68368	46.3218	117.269	22.1451	41.1138	127.628	-25.1462	79.3627	111.806	-13.7258	62.2267	106.6	14.7545	54.183	154.825	-34.5476	118.433	161.583	-30.7092	151.262	185.768	-16.2266	132.237	
70	0.583333	209.722	-0.869634	142.131	209.492	16.3284	114.665	211.991	24.1671	86.2562	200.143	18.3051	64.2383	213.275	-36.878	72.9111	210.58	-27.6933	47.3335	195.793	-5.67574	28.5961	192.115	-49.4073	71.6847	188.996	-36.9267	44.933	169.92	-11.1365	31.058	175.632	-51.6278	76.9258	168.109	-41.4489	50.2564	159.683	-12.9321	37.1398	156.451	-52.621	83.9125	146.111	-38.4897	61.2158	144.991	-16.1617	49.9554	176.404	-55.4877	127.826	176.809	-48.3962	157.051	206.076	-40.5022	142.604	
71	0.591667	227.246	-3.63127	148.389	233.438	12.7347	121.997	233.89	10.2441	91.9617	226.908	2.45456	67.2911	243.069	-47.181	90.4097	240.12	-43.7451	59.8503	233.525	-28.1672	39.4184	225.59	-59.6981	81.8857	222.621	-53.5788	55.1929	209.42	-25.144	33.7257	204.008	-63.3491	84.9237	197.091	-56.525	58.0763	193.315	-27.4562	38.9604	181.732	-61.7172	93.0562	180.856	-53.6827	67.4522	177.815	-30.3207	52.6276	196.02	-60.9828	141.103	190.665	-47.3389	169.85	220.96	-38.6917	156.677	
